<svg width="520" height="83" viewBox="0 0 520 83" fill="none" xmlns="http://www.w3.org/2000/svg">
<path d="M45.208 82.08L37.648 71.916C35.408 72.364 33.224 72.588 31.096 72.588C25.552 72.588 20.456 71.3 15.808 68.724C11.216 66.148 7.54799 62.564 4.80399 57.972C2.11599 53.324 0.772003 48.116 0.772003 42.348C0.772003 36.58 2.11599 31.4 4.80399 26.808C7.54799 22.216 11.216 18.632 15.808 16.056C20.456 13.48 25.552 12.192 31.096 12.192C36.64 12.192 41.708 13.48 46.3 16.056C50.948 18.632 54.588 22.216 57.22 26.808C59.908 31.4 61.252 36.58 61.252 42.348C61.252 47.388 60.216 52.008 58.144 56.208C56.128 60.352 53.3 63.796 49.66 66.54L62.596 82.08H45.208ZM15.472 42.348C15.472 47.556 16.872 51.728 19.672 54.864C22.528 57.944 26.336 59.484 31.096 59.484C35.8 59.484 39.552 57.916 42.352 54.78C45.208 51.644 46.636 47.5 46.636 42.348C46.636 37.14 45.208 32.996 42.352 29.916C39.552 26.78 35.8 25.212 31.096 25.212C26.336 25.212 22.528 26.752 19.672 29.832C16.872 32.912 15.472 37.084 15.472 42.348ZM113.171 25.128V72H98.807V65.616C97.351 67.688 95.363 69.368 92.843 70.656C90.379 71.888 87.635 72.504 84.611 72.504C81.027 72.504 77.863 71.72 75.119 70.152C72.375 68.528 70.247 66.204 68.735 63.18C67.223 60.156 66.467 56.6 66.467 52.512V25.128H80.747V50.58C80.747 53.716 81.559 56.152 83.183 57.888C84.807 59.624 86.991 60.492 89.735 60.492C92.535 60.492 94.747 59.624 96.371 57.888C97.995 56.152 98.807 53.716 98.807 50.58V25.128H113.171ZM118.113 48.48C118.113 43.664 119.009 39.436 120.801 35.796C122.649 32.156 125.141 29.356 128.277 27.396C131.413 25.436 134.913 24.456 138.777 24.456C142.081 24.456 144.965 25.128 147.429 26.472C149.949 27.816 151.881 29.58 153.225 31.764V25.128H167.589V72H153.225V65.364C151.825 67.548 149.865 69.312 147.345 70.656C144.881 72 141.997 72.672 138.693 72.672C134.885 72.672 131.413 71.692 128.277 69.732C125.141 67.716 122.649 64.888 120.801 61.248C119.009 57.552 118.113 53.296 118.113 48.48ZM153.225 48.564C153.225 44.98 152.217 42.152 150.201 40.08C148.241 38.008 145.833 36.972 142.977 36.972C140.121 36.972 137.685 38.008 135.669 40.08C133.709 42.096 132.729 44.896 132.729 48.48C132.729 52.064 133.709 54.92 135.669 57.048C137.685 59.12 140.121 60.156 142.977 60.156C145.833 60.156 148.241 59.12 150.201 57.048C152.217 54.976 153.225 52.148 153.225 48.564ZM204.021 24.624C209.509 24.624 213.877 26.416 217.125 30C220.429 33.528 222.081 38.4 222.081 44.616V72H207.801V46.548C207.801 43.412 206.989 40.976 205.365 39.24C203.741 37.504 201.557 36.636 198.813 36.636C196.069 36.636 193.885 37.504 192.261 39.24C190.637 40.976 189.825 43.412 189.825 46.548V72H175.461V25.128H189.825V31.344C191.281 29.272 193.241 27.648 195.705 26.472C198.169 25.24 200.941 24.624 204.021 24.624ZM255.666 59.82V72H248.358C243.15 72 239.09 70.74 236.178 68.22C233.266 65.644 231.81 61.472 231.81 55.704V37.056H226.098V25.128H231.81V13.704H246.174V25.128H255.582V37.056H246.174V55.872C246.174 57.272 246.51 58.28 247.182 58.896C247.854 59.512 248.974 59.82 250.542 59.82H255.666ZM307.431 25.128V72H293.067V65.616C291.611 67.688 289.623 69.368 287.103 70.656C284.639 71.888 281.895 72.504 278.871 72.504C275.287 72.504 272.123 71.72 269.379 70.152C266.635 68.528 264.507 66.204 262.995 63.18C261.483 60.156 260.727 56.6 260.727 52.512V25.128H275.007V50.58C275.007 53.716 275.819 56.152 277.443 57.888C279.067 59.624 281.251 60.492 283.995 60.492C286.795 60.492 289.007 59.624 290.631 57.888C292.255 56.152 293.067 53.716 293.067 50.58V25.128H307.431ZM375.037 24.624C380.861 24.624 385.481 26.388 388.897 29.916C392.369 33.444 394.105 38.344 394.105 44.616V72H379.825V46.548C379.825 43.524 379.013 41.2 377.389 39.576C375.821 37.896 373.637 37.056 370.837 37.056C368.037 37.056 365.825 37.896 364.201 39.576C362.633 41.2 361.849 43.524 361.849 46.548V72H347.569V46.548C347.569 43.524 346.757 41.2 345.133 39.576C343.565 37.896 341.381 37.056 338.581 37.056C335.781 37.056 333.569 37.896 331.945 39.576C330.377 41.2 329.593 43.524 329.593 46.548V72H315.229V25.128H329.593V31.008C331.049 29.048 332.953 27.508 335.305 26.388C337.657 25.212 340.317 24.624 343.285 24.624C346.813 24.624 349.949 25.38 352.693 26.892C355.493 28.404 357.677 30.56 359.245 33.36C360.869 30.784 363.081 28.684 365.881 27.06C368.681 25.436 371.733 24.624 375.037 24.624ZM439.003 13.032C445.219 13.032 450.651 14.264 455.299 16.728C459.947 19.192 463.531 22.664 466.051 27.144C468.627 31.568 469.915 36.692 469.915 42.516C469.915 48.284 468.627 53.408 466.051 57.888C463.531 62.368 459.919 65.84 455.215 68.304C450.567 70.768 445.163 72 439.003 72H416.911L394.1 44.028L416.911 13.032H439.003ZM438.079 59.568C443.511 59.568 447.739 58.084 450.763 55.116C453.787 52.148 455.299 47.948 455.299 42.516C455.299 37.084 453.787 32.856 450.763 29.832C447.739 26.808 443.511 25.296 438.079 25.296H431.275V59.568H438.079ZM519.607 47.808C519.607 49.152 519.523 50.552 519.355 52.008H486.847C487.071 54.92 487.995 57.16 489.619 58.728C491.299 60.24 493.343 60.996 495.751 60.996C499.335 60.996 501.827 59.484 503.227 56.46H518.515C517.731 59.54 516.303 62.312 514.231 64.776C512.215 67.24 509.667 69.172 506.587 70.572C503.507 71.972 500.063 72.672 496.255 72.672C491.663 72.672 487.575 71.692 483.991 69.732C480.407 67.772 477.607 64.972 475.591 61.332C473.575 57.692 472.567 53.436 472.567 48.564C472.567 43.692 473.547 39.436 475.507 35.796C477.523 32.156 480.323 29.356 483.907 27.396C487.491 25.436 491.607 24.456 496.255 24.456C500.791 24.456 504.823 25.408 508.351 27.312C511.879 29.216 514.623 31.932 516.583 35.46C518.599 38.988 519.607 43.104 519.607 47.808ZM504.907 44.028C504.907 41.564 504.067 39.604 502.387 38.148C500.707 36.692 498.607 35.964 496.087 35.964C493.679 35.964 491.635 36.664 489.955 38.064C488.331 39.464 487.323 41.452 486.931 44.028H504.907Z" fill="white"/>
<ellipse cx="379" cy="9.5" rx="10" ry="9.5" fill="white"/>
</svg>
